<svg height="18" viewBox="0 0 20 18" width="20" xmlns="http://www.w3.org/2000/svg"><path d="m90.9118987 232.975-4.6663291-8.316667-4.6663291-8.3125c-.121519-.2125-.3402532-.345833-.5792405-.345833s-.4577215.133333-.5751899.345833l-4.6663291 8.3125-4.6703797 8.316667c-.1174684.208333-.1174684.466667 0 .6875.121519.208333.3402531.3375.5792405.3375h18.6653164c.243038 0 .4577215-.129167.5792405-.3375.1174684-.220833.1174684-.479167 0-.6875zm-8.7078987-1.095c0 .152-.12.268-.264.268h-1.68c-.144 0-.26-.116-.26-.268v-1.612c0-.152.116-.268.26-.268h1.68c.144 0 .264.116.264.268zm-.107621-3.13958c-.012.142769-.124.25958-.264.25958h-1.188c-.14 0-.252-.116811-.264-.263906l-.38-6.428925c-.004-.077874.024-.155747.068-.216316.052-.056242.12-.090853.192-.090853h1.944c.072 0 .144.034611.192.090853.052.060569.072.138442.072.216316z" fill="#333345" transform="translate(-71 -216)"/></svg>